<svg width="9" height="10" viewBox="0 0 9 10" fill="none" xmlns="http://www.w3.org/2000/svg">
<g id="Isolation_Mode" clip-path="url(#clip0_511_7535)">
<path id="Vector" d="M7.31267 3.75098H7V2.50098C7 1.12231 5.87867 0.000976562 4.5 0.000976562C3.12133 0.000976562 2 1.12231 2 2.50098V3.75098H1.68733C1.17 3.75164 0.750667 4.17098 0.75 4.68831V9.06331C0.75 9.58031 1.171 10.001 1.68733 10.001H7.31267C7.82933 10.001 8.25 9.58064 8.25 9.06331V4.68831C8.25 4.17131 7.829 3.75098 7.31267 3.75098ZM2.83333 2.50098C2.83333 1.58164 3.58067 0.83431 4.5 0.83431C5.41933 0.83431 6.16667 1.58164 6.16667 2.50098V3.75098H2.83333V2.50098ZM4.91667 6.96831V7.91764C4.91667 8.14764 4.73 8.33431 4.5 8.33431C4.27 8.33431 4.08333 8.14764 4.08333 7.91764V6.96831C3.83533 6.82364 3.66667 6.55798 3.66667 6.25098C3.66667 5.79131 4.04033 5.41764 4.5 5.41764C4.95967 5.41764 5.33333 5.79131 5.33333 6.25098C5.33333 6.55798 5.16467 6.82398 4.91667 6.96831Z" fill="#5534A5"/>
</g>
<defs>
<clipPath id="clip0_511_7535">
<rect width="7.5" height="10" fill="white" transform="translate(0.75 0.000976562)"/>
</clipPath>
</defs>
</svg>
