<svg width="4" height="6" viewBox="0 0 4 6" fill="none" xmlns="http://www.w3.org/2000/svg">
<path id="Vector" d="M1.86163 4.41268C1.5853 4.41268 1.3613 4.64302 1.3613 4.91935C1.3613 5.19568 1.57863 5.42602 1.86163 5.42602C2.14463 5.42602 2.3683 5.18902 2.3683 4.91935C2.3683 4.64968 2.13797 4.41268 1.86163 4.41268ZM1.9473 0.575684C1.05863 0.575684 0.650635 1.10235 0.650635 1.45768C0.650635 1.71435 0.867968 1.83268 1.04563 1.83268C1.40097 1.83268 1.2563 1.32602 1.92763 1.32602C2.25663 1.32602 2.51997 1.47068 2.51997 1.77368C2.51997 2.12902 2.1513 2.33302 1.9343 2.51735C1.7433 2.68202 1.4933 2.95168 1.4933 3.51768C1.4933 3.86002 1.5853 3.95868 1.8553 3.95868C2.17763 3.95868 2.24363 3.81402 2.24363 3.68868C2.24363 3.34635 2.2503 3.14902 2.6123 2.86602C2.78997 2.72802 3.3493 2.28035 3.3493 1.66168C3.3493 1.04302 2.78997 0.575684 1.94763 0.575684H1.9473Z" fill="white"/>
</svg>
